<svg xmlns="http://www.w3.org/2000/svg" xmlns:xlink="http://www.w3.org/1999/xlink" width="500" zoomAndPan="magnify" viewBox="0 0 375 374.999991" height="500" preserveAspectRatio="xMidYMid meet" version="1.0"><defs><clipPath id="c35d612cc8"><path d="M 20 15.433594 L 355 15.433594 L 355 359 L 20 359 Z M 20 15.433594 " clip-rule="nonzero"/></clipPath></defs><g clip-path="url(#c35d612cc8)"><path fill="#18181b" d="M 343.285156 358.054688 C 347.183594 359.597656 351.617188 357.9375 353.539062 354.210938 C 355.464844 350.484375 354.25 345.910156 350.734375 343.625 C 350.734375 343.625 262.574219 286.429688 213.59375 231.632812 C 201.542969 218.152344 191.886719 204.890625 186.859375 192.691406 C 183.996094 185.738281 182.640625 179.246094 183.757812 173.394531 C 188.160156 150.285156 205.6875 123.183594 224.84375 98.8125 C 254.453125 61.144531 288.398438 30.132812 288.398438 30.132812 C 291.222656 27.550781 291.878906 23.359375 289.972656 20.046875 C 288.070312 16.730469 284.121094 15.179688 280.46875 16.320312 C 280.46875 16.320312 160.867188 53.640625 85.117188 96.898438 C 65.015625 108.375 47.957031 120.332031 36.710938 132.078125 C 28.222656 140.945312 22.933594 149.886719 21.308594 158.425781 C 19.5625 167.566406 23.230469 178.265625 32.386719 189.507812 C 43.679688 203.371094 63.621094 218.878906 88.332031 234.609375 C 181.464844 293.90625 343.285156 358.054688 343.285156 358.054688 Z M 343.285156 358.054688 " fill-opacity="1" fill-rule="evenodd"/></g></svg>