<svg xmlns="http://www.w3.org/2000/svg" xmlns:xlink="http://www.w3.org/1999/xlink" width="500" zoomAndPan="magnify"
     viewBox="0 0 375 374.999991" height="500" preserveAspectRatio="xMidYMid meet" version="1.0">
  <defs>
    <clipPath id="a1ff50bfd2">
      <path
        d="M 187.5 0 C 83.945312 0 0 83.945312 0 187.5 C 0 291.054688 83.945312 375 187.5 375 C 291.054688 375 375 291.054688 375 187.5 C 375 83.945312 291.054688 0 187.5 0 Z M 187.5 0 "
        clip-rule="nonzero"/>
    </clipPath>
  </defs>
  <g clip-path="url(#a1ff50bfd2)">
    <rect x="-37.5" width="450" fill="#ffffff" y="-37.499999" height="449.999989" fill-opacity="1"/>
  </g>
  <path fill="#18181b"
        d="M 288.027344 319.164062 C 291.035156 320.359375 294.460938 319.078125 295.945312 316.199219 C 297.429688 313.324219 296.492188 309.792969 293.777344 308.027344 C 293.777344 308.027344 225.71875 263.875 187.90625 221.574219 C 178.605469 211.167969 171.152344 200.929688 167.273438 191.511719 C 165.058594 186.144531 164.015625 181.128906 164.875 176.613281 C 168.273438 158.777344 181.804688 137.855469 196.59375 119.039062 C 219.449219 89.960938 245.65625 66.019531 245.65625 66.019531 C 247.835938 64.027344 248.34375 60.792969 246.871094 58.234375 C 245.402344 55.671875 242.355469 54.476562 239.535156 55.355469 C 239.535156 55.355469 147.207031 84.167969 88.730469 117.5625 C 73.210938 126.421875 60.042969 135.652344 51.359375 144.71875 C 44.808594 151.5625 40.722656 158.464844 39.46875 165.058594 C 38.121094 172.117188 40.953125 180.375 48.023438 189.054688 C 56.742188 199.753906 72.136719 211.726562 91.210938 223.871094 C 163.105469 269.644531 288.027344 319.164062 288.027344 319.164062 Z M 288.027344 319.164062 "
        fill-opacity="1" fill-rule="evenodd"/>
</svg>
