<svg width="115" height="36" viewBox="0 0 115 36" fill="none" xmlns="http://www.w3.org/2000/svg">
  <path
    d="M24.7049 21.6378C25.5747 22.1034 25.9163 23.1987 25.3003 23.9693C24.4062 25.0875 23.2673 25.9947 21.9631 26.6146C20.12 27.4907 18.0449 27.7463 16.0458 27.3436C14.0467 26.9408 12.23 25.901 10.8652 24.3786C9.50048 22.8561 8.66039 20.9321 8.46957 18.8919C8.27876 16.8516 8.74739 14.804 9.80594 13.0526C10.8645 11.3012 12.4566 9.93939 14.346 9.16923C16.2354 8.39908 18.3216 8.26159 20.2949 8.77715C21.6905 9.14178 22.9771 9.81933 24.0626 10.7499C24.8119 11.3922 24.6802 12.5323 23.9124 13.1524C23.1393 13.7767 22.0147 13.6229 21.1899 13.0686C20.6441 12.7019 20.0379 12.4269 19.3944 12.2588C18.166 11.9379 16.8674 12.0234 15.6912 12.5029C14.515 12.9823 13.524 13.83 12.865 14.9202C12.2061 16.0105 11.9143 17.2852 12.0331 18.5552C12.1519 19.8252 12.6749 21.023 13.5244 21.9707C14.374 22.9184 15.5049 23.5656 16.7493 23.8164C17.9938 24.0671 19.2855 23.908 20.4329 23.3626C21.0353 23.0762 21.5811 22.6914 22.05 22.2275C22.7555 21.5295 23.83 21.1695 24.7049 21.6378Z"
    fill="url(#paint0_linear_46_74)" />
  <path
    d="M30.9436 27.5451C31.7403 28.1285 31.9221 29.2532 31.2661 29.9913C28.8077 32.7575 25.5474 34.7046 21.9227 35.5423C17.7173 36.5141 13.3042 35.9273 9.49497 33.8896C5.68576 31.852 2.73662 28.5005 1.18995 24.4517C-0.356718 20.4029 -0.396908 15.929 1.07677 11.8528C2.55045 7.77659 5.4389 4.37219 9.21088 2.26574C12.9829 0.159294 17.3847 -0.507562 21.6069 0.387822C25.8291 1.28321 29.5877 3.68062 32.1913 7.13914C34.4349 10.1192 35.6909 13.7145 35.8096 17.4205C35.8413 18.4096 34.9775 19.1575 33.9901 19.0906C33.0038 19.0237 32.2698 18.1679 32.2138 17.1808C32.0529 14.3421 31.0579 11.6 29.335 9.31132C27.252 6.5445 24.2452 4.62657 20.8674 3.91026C17.4897 3.19396 13.9682 3.72744 10.9506 5.4126C7.933 7.09776 5.62224 9.82128 4.4433 13.0822C3.26436 16.3432 3.29651 19.9224 4.53385 23.1614C5.77118 26.4004 8.13049 29.0816 11.1779 30.7117C14.2252 32.3418 17.7557 32.8113 21.1201 32.0338C23.8975 31.392 26.4075 29.9359 28.3425 27.8696C29.0221 27.1439 30.1415 26.9577 30.9436 27.5451Z"
    fill="url(#paint1_linear_46_74)" />
  <path
    d="M34.7616 3.37885C34.3361 2.48451 34.7115 1.40507 35.6426 1.06756C37.2866 0.471667 39.0116 0.119713 40.7632 0.0256668C43.1117 -0.100435 45.462 0.239619 47.6798 1.02641C49.8976 1.81321 51.9395 3.03133 53.6888 4.61124C55.4382 6.19114 56.8609 8.10189 57.8756 10.2344C58.8902 12.3669 59.477 14.6794 59.6025 17.0398C59.728 19.4002 59.3896 21.7624 58.6068 23.9914C57.824 26.2204 56.612 28.2726 55.04 30.0308C53.8706 31.3388 52.5191 32.465 51.0301 33.3759C50.1806 33.8956 49.0974 33.5078 48.6695 32.6085C48.2439 31.7141 48.6295 30.6532 49.4616 30.1161C50.5371 29.4217 51.5177 28.5843 52.3757 27.6247C53.6333 26.2181 54.6029 24.5763 55.2292 22.7931C55.8554 21.0099 56.1261 19.1202 56.0257 17.2318C55.9254 15.3435 55.4559 13.4935 54.6442 11.7875C53.8324 10.0815 52.6943 8.55292 51.2948 7.289C49.8953 6.02507 48.2618 5.05057 46.4875 4.42114C44.7133 3.7917 42.8331 3.51966 40.9542 3.62054C39.6774 3.6891 38.4182 3.92898 37.2095 4.33174C36.2647 4.64659 35.1895 4.27817 34.7616 3.37885Z"
    fill="url(#paint2_linear_46_74)" />
  <path
    d="M34.3496 15.8002C33.4003 15.5168 32.3832 16.06 32.2845 17.0458C32.1231 18.6579 32.3725 20.2953 33.023 21.7993C33.9126 23.856 35.4955 25.5315 37.493 26.5309C39.4905 27.5303 41.7748 27.7896 43.9438 27.2632C46.1129 26.7368 48.0277 25.4584 49.3514 23.653C50.675 21.8476 51.3227 19.6308 51.1805 17.3927C51.0383 15.1546 50.1153 13.0386 48.5738 11.4171C47.0324 9.79554 44.9713 8.77236 42.7533 8.52756C41.1309 8.34851 39.5007 8.59429 38.0162 9.22706C37.1068 9.6147 36.8902 10.7439 37.4378 11.5669C37.989 12.3954 39.1095 12.5858 40.0643 12.3057C40.8042 12.0886 41.5849 12.0176 42.3626 12.1034C43.7433 12.2558 45.0263 12.8927 45.9859 13.9021C46.9454 14.9115 47.52 16.2287 47.6086 17.6219C47.6971 19.0152 47.2939 20.3951 46.4699 21.519C45.6459 22.6429 44.4539 23.4387 43.1037 23.7664C41.7535 24.0941 40.3315 23.9326 39.0881 23.3105C37.8446 22.6883 36.8593 21.6454 36.3055 20.3651C35.9901 19.6358 35.8262 18.8562 35.8166 18.0729C35.8045 17.0861 35.2953 16.0825 34.3496 15.8002Z"
    fill="url(#paint3_linear_46_74)" />
  <path
    d="M109.29 12.6761C110.18 12.6761 110.966 12.8207 111.651 13.1098C112.335 13.3852 112.909 13.7845 113.374 14.3076C113.84 14.8171 114.195 15.4229 114.442 16.125C114.688 16.8134 114.811 17.5707 114.811 18.3968C114.811 19.4294 114.599 20.345 114.175 21.1435C113.764 21.9421 113.183 22.5685 112.43 23.0229C111.678 23.4772 110.789 23.7044 109.762 23.7044C109.325 23.7044 108.9 23.6424 108.49 23.5185C108.093 23.3946 107.731 23.2156 107.402 22.9816C107.09 22.7489 106.824 22.4755 106.606 22.1613C106.603 22.1576 106.599 22.1555 106.595 22.1555C106.587 22.1555 106.581 22.1615 106.581 22.1689V26.5942C106.581 27.3706 105.952 28 105.176 28C104.399 28 103.77 27.3706 103.77 26.5942V18.3968C103.77 17.2265 103.996 16.2145 104.447 15.3609C104.899 14.5073 105.535 13.8464 106.356 13.3783C107.19 12.9102 108.169 12.6761 109.29 12.6761ZM109.29 15.0924C108.743 15.0924 108.264 15.2301 107.854 15.5055C107.457 15.7808 107.149 16.1526 106.93 16.6207C106.725 17.0888 106.622 17.612 106.622 18.1902C106.622 18.7685 106.725 19.2917 106.93 19.7598C107.149 20.2279 107.457 20.5997 107.854 20.875C108.264 21.1504 108.743 21.2881 109.29 21.2881C109.851 21.2881 110.33 21.1504 110.727 20.875C111.124 20.5997 111.425 20.2279 111.63 19.7598C111.849 19.2917 111.958 18.7685 111.958 18.1902C111.958 17.612 111.849 17.0888 111.63 16.6207C111.425 16.1526 111.124 15.7808 110.727 15.5055C110.33 15.2301 109.851 15.0924 109.29 15.0924Z"
    fill="url(#paint4_linear_46_74)" />
  <path
    d="M95.9689 23.7044C94.888 23.7044 93.9235 23.4634 93.0752 22.9816C92.2269 22.4859 91.5565 21.825 91.064 20.9989C90.5714 20.1591 90.3252 19.2229 90.3252 18.1902C90.3252 17.1576 90.5714 16.2283 91.064 15.4022C91.5565 14.5624 92.2269 13.9015 93.0752 13.4196C93.9235 12.9239 94.888 12.6761 95.9689 12.6761C97.0497 12.6761 98.0143 12.9239 98.8626 13.4196C99.7108 13.9015 100.381 14.5624 100.874 15.4022C101.366 16.2283 101.613 17.1576 101.613 18.1902C101.613 19.2229 101.366 20.1591 100.874 20.9989C100.381 21.825 99.7108 22.4859 98.8626 22.9816C98.0143 23.4634 97.0497 23.7044 95.9689 23.7044ZM95.9689 21.2881C96.5435 21.2881 97.0361 21.1504 97.4465 20.875C97.8707 20.5997 98.1922 20.2279 98.4111 19.7598C98.6437 19.2917 98.76 18.7685 98.76 18.1902C98.76 17.612 98.6437 17.0888 98.4111 16.6207C98.1922 16.1526 97.8707 15.7808 97.4465 15.5055C97.0361 15.2301 96.5435 15.0924 95.9689 15.0924C95.3943 15.0924 94.8949 15.2301 94.4707 15.5055C94.0603 15.7808 93.7388 16.1526 93.5062 16.6207C93.2873 17.0888 93.1778 17.612 93.1778 18.1902C93.1778 18.7685 93.2873 19.2917 93.5062 19.7598C93.7388 20.2279 94.0603 20.5997 94.4707 20.875C94.8949 21.1504 95.3943 21.2881 95.9689 21.2881Z"
    fill="url(#paint5_linear_46_74)" />
  <path
    d="M83.0373 23.7044C81.9564 23.7044 80.9919 23.4634 80.1436 22.9816C79.2953 22.4859 78.6249 21.825 78.1324 20.9989C77.6398 20.1591 77.3936 19.2229 77.3936 18.1902C77.3936 17.1576 77.6398 16.2283 78.1324 15.4022C78.6249 14.5624 79.2953 13.9015 80.1436 13.4196C80.9919 12.9239 81.9564 12.6761 83.0373 12.6761C84.1182 12.6761 85.0827 12.9239 85.931 13.4196C86.7793 13.9015 87.4497 14.5624 87.9422 15.4022C88.4348 16.2283 88.681 17.1576 88.681 18.1902C88.681 19.2229 88.4348 20.1591 87.9422 20.9989C87.4497 21.825 86.7793 22.4859 85.931 22.9816C85.0827 23.4634 84.1182 23.7044 83.0373 23.7044ZM83.0373 21.2881C83.6119 21.2881 84.1045 21.1504 84.5149 20.875C84.9391 20.5997 85.2606 20.2279 85.4795 19.7598C85.7121 19.2917 85.8284 18.7685 85.8284 18.1902C85.8284 17.612 85.7121 17.0888 85.4795 16.6207C85.2606 16.1526 84.9391 15.7808 84.5149 15.5055C84.1045 15.2301 83.6119 15.0924 83.0373 15.0924C82.4627 15.0924 81.9633 15.2301 81.5391 15.5055C81.1287 15.7808 80.8072 16.1526 80.5746 16.6207C80.3557 17.0888 80.2462 17.612 80.2462 18.1902C80.2462 18.7685 80.3557 19.2917 80.5746 19.7598C80.8072 20.2279 81.1287 20.5997 81.5391 20.875C81.9633 21.1504 82.4627 21.2881 83.0373 21.2881Z"
    fill="url(#paint6_linear_46_74)" />
  <path
    d="M72.2687 23.4566C71.4204 23.4566 70.6748 23.2638 70.0317 22.8783C69.3887 22.479 68.8893 21.9558 68.5336 21.3087C68.1779 20.6479 68 19.925 68 19.1403V10.4674C68 9.657 68.657 9.00004 69.4674 9.00004C70.2778 9.00004 70.9347 9.657 70.9347 10.4674V19.4913C70.9347 19.8631 71.0647 20.1866 71.3247 20.462C71.5846 20.7236 71.8993 20.8544 72.2687 20.8544H74.7643C75.4829 20.8544 76.0654 21.4369 76.0654 22.1555C76.0654 22.874 75.4829 23.4566 74.7643 23.4566H72.2687Z"
    fill="url(#paint7_linear_46_74)" />
  <defs>
    <linearGradient id="paint0_linear_46_74" x1="102.08" y1="37.1746" x2="63.4359" y2="-30.5195"
                    gradientUnits="userSpaceOnUse">
      <stop stop-color="#B060FF" />
      <stop offset="0.47" stop-color="#EE87CB" />
      <stop offset="1" stop-color="#FFF1BE" />
    </linearGradient>
    <linearGradient id="paint1_linear_46_74" x1="102.08" y1="37.1746" x2="63.4359" y2="-30.5195"
                    gradientUnits="userSpaceOnUse">
      <stop stop-color="#B060FF" />
      <stop offset="0.47" stop-color="#EE87CB" />
      <stop offset="1" stop-color="#FFF1BE" />
    </linearGradient>
    <linearGradient id="paint2_linear_46_74" x1="102.08" y1="37.1746" x2="63.4359" y2="-30.5195"
                    gradientUnits="userSpaceOnUse">
      <stop stop-color="#B060FF" />
      <stop offset="0.47" stop-color="#EE87CB" />
      <stop offset="1" stop-color="#FFF1BE" />
    </linearGradient>
    <linearGradient id="paint3_linear_46_74" x1="102.08" y1="37.1746" x2="63.4359" y2="-30.5195"
                    gradientUnits="userSpaceOnUse">
      <stop stop-color="#B060FF" />
      <stop offset="0.47" stop-color="#EE87CB" />
      <stop offset="1" stop-color="#FFF1BE" />
    </linearGradient>
    <linearGradient id="paint4_linear_46_74" x1="102.08" y1="37.1746" x2="63.4359" y2="-30.5195"
                    gradientUnits="userSpaceOnUse">
      <stop stop-color="#B060FF" />
      <stop offset="0.47" stop-color="#EE87CB" />
      <stop offset="1" stop-color="#FFF1BE" />
    </linearGradient>
    <linearGradient id="paint5_linear_46_74" x1="102.08" y1="37.1746" x2="63.4359" y2="-30.5195"
                    gradientUnits="userSpaceOnUse">
      <stop stop-color="#B060FF" />
      <stop offset="0.47" stop-color="#EE87CB" />
      <stop offset="1" stop-color="#FFF1BE" />
    </linearGradient>
    <linearGradient id="paint6_linear_46_74" x1="102.08" y1="37.1746" x2="63.4359" y2="-30.5195"
                    gradientUnits="userSpaceOnUse">
      <stop stop-color="#B060FF" />
      <stop offset="0.47" stop-color="#EE87CB" />
      <stop offset="1" stop-color="#FFF1BE" />
    </linearGradient>
    <linearGradient id="paint7_linear_46_74" x1="102.08" y1="37.1746" x2="63.4359" y2="-30.5195"
                    gradientUnits="userSpaceOnUse">
      <stop stop-color="#B060FF" />
      <stop offset="0.47" stop-color="#EE87CB" />
      <stop offset="1" stop-color="#FFF1BE" />
    </linearGradient>
  </defs>
</svg>
