<svg width="115" height="36" viewBox="0 0 115 36" fill="none" xmlns="http://www.w3.org/2000/svg">
  <path
    d="M24.7049 21.6378C25.5747 22.1034 25.9163 23.1987 25.3003 23.9692C24.4062 25.0874 23.2673 25.9946 21.9631 26.6145C20.12 27.4906 18.0449 27.7463 16.0458 27.3435C14.0467 26.9407 12.23 25.901 10.8652 24.3785C9.50048 22.8561 8.66039 20.932 8.46957 18.8918C8.27876 16.8516 8.74739 14.8039 9.80594 13.0525C10.8645 11.3011 12.4566 9.93933 14.346 9.16917C16.2354 8.39902 18.3216 8.26153 20.2949 8.77709C21.6905 9.14172 22.9771 9.81927 24.0626 10.7499C24.8119 11.3922 24.6802 12.5323 23.9124 13.1523C23.1393 13.7767 22.0147 13.6228 21.1899 13.0686C20.6441 12.7018 20.0379 12.4269 19.3944 12.2587C18.166 11.9378 16.8674 12.0234 15.6912 12.5028C14.515 12.9822 13.524 13.8299 12.865 14.9202C12.2061 16.0104 11.9143 17.2851 12.0331 18.5551C12.1519 19.8252 12.6749 21.0229 13.5244 21.9706C14.374 22.9183 15.5049 23.5656 16.7493 23.8163C17.9938 24.067 19.2855 23.9079 20.4329 23.3625C21.0353 23.0762 21.5811 22.6913 22.05 22.2274C22.7555 21.5294 23.83 21.1694 24.7049 21.6378Z"
    fill="url(#paint0_linear_46_76)" />
  <path
    d="M30.9436 27.545C31.7403 28.1284 31.9221 29.2532 31.2661 29.9913C28.8077 32.7575 25.5474 34.7046 21.9227 35.5422C17.7173 36.5141 13.3042 35.9272 9.49497 33.8896C5.68576 31.8519 2.73662 28.5005 1.18995 24.4517C-0.356718 20.4029 -0.396908 15.9289 1.07677 11.8527C2.55045 7.77653 5.4389 4.37213 9.21088 2.26568C12.9829 0.159233 17.3847 -0.507623 21.6069 0.387761C25.8291 1.28315 29.5877 3.68056 32.1913 7.13908C34.4349 10.1192 35.6909 13.7145 35.8096 17.4205C35.8413 18.4096 34.9775 19.1575 33.9901 19.0905C33.0038 19.0236 32.2698 18.1678 32.2138 17.1807C32.0529 14.342 31.0579 11.5999 29.335 9.31126C27.252 6.54444 24.2452 4.62651 20.8674 3.9102C17.4897 3.1939 13.9682 3.72738 10.9506 5.41254C7.933 7.0977 5.62224 9.82122 4.4433 13.0822C3.26436 16.3432 3.29651 19.9223 4.53385 23.1613C5.77118 26.4004 8.13049 29.0815 11.1779 30.7116C14.2252 32.3418 17.7557 32.8113 21.1201 32.0338C23.8975 31.3919 26.4075 29.9358 28.3425 27.8695C29.0221 27.1438 30.1415 26.9576 30.9436 27.545Z"
    fill="url(#paint1_linear_46_76)" />
  <path
    d="M34.7616 3.37879C34.3361 2.48445 34.7115 1.40501 35.6426 1.0675C37.2866 0.471606 39.0116 0.119652 40.7632 0.0256058C43.1117 -0.100496 45.462 0.239558 47.6798 1.02635C49.8976 1.81314 51.9395 3.03127 53.6888 4.61118C55.4382 6.19108 56.8609 8.10183 57.8756 10.2343C58.8902 12.3668 59.477 14.6793 59.6025 17.0397C59.728 19.4002 59.3896 21.7623 58.6068 23.9913C57.824 26.2203 56.612 28.2725 55.04 30.0308C53.8706 31.3387 52.5191 32.4649 51.0301 33.3758C50.1806 33.8955 49.0974 33.5077 48.6695 32.6084C48.2439 31.7141 48.6295 30.6532 49.4616 30.116C50.5371 29.4217 51.5177 28.5843 52.3757 27.6246C53.6333 26.218 54.6029 24.5763 55.2292 22.793C55.8554 21.0098 56.1261 19.1201 56.0257 17.2318C55.9254 15.3434 55.4559 13.4934 54.6442 11.7875C53.8324 10.0815 52.6943 8.55286 51.2948 7.28894C49.8953 6.02501 48.2618 5.05051 46.4875 4.42108C44.7133 3.79164 42.8331 3.5196 40.9542 3.62048C39.6774 3.68904 38.4182 3.92892 37.2095 4.33168C36.2647 4.64653 35.1895 4.27811 34.7616 3.37879Z"
    fill="url(#paint2_linear_46_76)" />
  <path
    d="M34.3496 15.8001C33.4003 15.5167 32.3832 16.06 32.2845 17.0458C32.1231 18.6579 32.3725 20.2952 33.023 21.7992C33.9126 23.8559 35.4955 25.5314 37.493 26.5308C39.4905 27.5302 41.7748 27.7896 43.9438 27.2632C46.1129 26.7368 48.0277 25.4584 49.3514 23.6529C50.675 21.8475 51.3227 19.6307 51.1805 17.3926C51.0383 15.1545 50.1153 13.0385 48.5738 11.417C47.0324 9.79548 44.9713 8.7723 42.7533 8.5275C41.1309 8.34845 39.5007 8.59422 38.0162 9.227C37.1068 9.61464 36.8902 10.7438 37.4378 11.5669C37.989 12.3953 39.1095 12.5857 40.0643 12.3056C40.8042 12.0885 41.5849 12.0175 42.3626 12.1034C43.7433 12.2557 45.0263 12.8927 45.9859 13.9021C46.9454 14.9115 47.52 16.2287 47.6086 17.6219C47.6971 19.0151 47.2939 20.3951 46.4699 21.5189C45.6459 22.6428 44.4539 23.4386 43.1037 23.7663C41.7535 24.094 40.3315 23.9326 39.0881 23.3104C37.8446 22.6883 36.8593 21.6453 36.3055 20.365C35.9901 19.6358 35.8262 18.8562 35.8166 18.0729C35.8045 17.0861 35.2953 16.0824 34.3496 15.8001Z"
    fill="url(#paint3_linear_46_76)" />
  <path
    d="M109.29 12.6761C110.18 12.6761 110.966 12.8207 111.651 13.1098C112.335 13.3851 112.909 13.7844 113.374 14.3076C113.84 14.817 114.195 15.4228 114.442 16.125C114.688 16.8134 114.811 17.5707 114.811 18.3967C114.811 19.4293 114.599 20.3449 114.175 21.1435C113.764 21.942 113.183 22.5685 112.43 23.0228C111.678 23.4772 110.789 23.7043 109.762 23.7043C109.325 23.7043 108.9 23.6424 108.49 23.5185C108.093 23.3946 107.731 23.2156 107.402 22.9815C107.09 22.7489 106.824 22.4755 106.606 22.1612C106.603 22.1576 106.599 22.1554 106.595 22.1554V22.1554C106.587 22.1554 106.581 22.1615 106.581 22.1689V26.5942C106.581 27.3706 105.952 28 105.176 28V28C104.399 28 103.77 27.3706 103.77 26.5942V18.3967C103.77 17.2264 103.996 16.2145 104.447 15.3609C104.899 14.5072 105.535 13.8464 106.356 13.3783C107.19 12.9101 108.169 12.6761 109.29 12.6761ZM109.29 15.0924C108.743 15.0924 108.264 15.2301 107.854 15.5054C107.457 15.7808 107.149 16.1525 106.93 16.6207C106.725 17.0888 106.622 17.612 106.622 18.1902C106.622 18.7685 106.725 19.2917 106.93 19.7598C107.149 20.2279 107.457 20.5996 107.854 20.875C108.264 21.1504 108.743 21.288 109.29 21.288C109.851 21.288 110.33 21.1504 110.727 20.875C111.124 20.5996 111.425 20.2279 111.63 19.7598C111.849 19.2917 111.958 18.7685 111.958 18.1902C111.958 17.612 111.849 17.0888 111.63 16.6207C111.425 16.1525 111.124 15.7808 110.727 15.5054C110.33 15.2301 109.851 15.0924 109.29 15.0924Z"
    fill="black" />
  <path
    d="M95.9689 23.7043C94.888 23.7043 93.9234 23.4634 93.0752 22.9815C92.2269 22.4859 91.5565 21.825 91.064 20.9989C90.5714 20.1591 90.3251 19.2228 90.3251 18.1902C90.3251 17.1576 90.5714 16.2283 91.064 15.4022C91.5565 14.5623 92.2269 13.9014 93.0752 13.4196C93.9234 12.9239 94.888 12.6761 95.9689 12.6761C97.0497 12.6761 98.0143 12.9239 98.8626 13.4196C99.7108 13.9014 100.381 14.5623 100.874 15.4022C101.366 16.2283 101.613 17.1576 101.613 18.1902C101.613 19.2228 101.366 20.1591 100.874 20.9989C100.381 21.825 99.7108 22.4859 98.8626 22.9815C98.0143 23.4634 97.0497 23.7043 95.9689 23.7043ZM95.9689 21.288C96.5435 21.288 97.036 21.1504 97.4465 20.875C97.8706 20.5996 98.1922 20.2279 98.4111 19.7598C98.6437 19.2917 98.7599 18.7685 98.7599 18.1902C98.7599 17.612 98.6437 17.0888 98.4111 16.6207C98.1922 16.1525 97.8706 15.7808 97.4465 15.5054C97.036 15.2301 96.5435 15.0924 95.9689 15.0924C95.3942 15.0924 94.8948 15.2301 94.4707 15.5054C94.0603 15.7808 93.7387 16.1525 93.5061 16.6207C93.2872 17.0888 93.1778 17.612 93.1778 18.1902C93.1778 18.7685 93.2872 19.2917 93.5061 19.7598C93.7387 20.2279 94.0603 20.5996 94.4707 20.875C94.8948 21.1504 95.3942 21.288 95.9689 21.288Z"
    fill="black" />
  <path
    d="M83.0373 23.7043C81.9564 23.7043 80.9919 23.4634 80.1436 22.9815C79.2953 22.4859 78.6249 21.825 78.1324 20.9989C77.6398 20.1591 77.3936 19.2228 77.3936 18.1902C77.3936 17.1576 77.6398 16.2283 78.1324 15.4022C78.6249 14.5623 79.2953 13.9014 80.1436 13.4196C80.9919 12.9239 81.9564 12.6761 83.0373 12.6761C84.1181 12.6761 85.0827 12.9239 85.931 13.4196C86.7793 13.9014 87.4497 14.5623 87.9422 15.4022C88.4347 16.2283 88.681 17.1576 88.681 18.1902C88.681 19.2228 88.4347 20.1591 87.9422 20.9989C87.4497 21.825 86.7793 22.4859 85.931 22.9815C85.0827 23.4634 84.1181 23.7043 83.0373 23.7043ZM83.0373 21.288C83.6119 21.288 84.1045 21.1504 84.5149 20.875C84.9391 20.5996 85.2606 20.2279 85.4795 19.7598C85.7121 19.2917 85.8284 18.7685 85.8284 18.1902C85.8284 17.612 85.7121 17.0888 85.4795 16.6207C85.2606 16.1525 84.9391 15.7808 84.5149 15.5054C84.1045 15.2301 83.6119 15.0924 83.0373 15.0924C82.4627 15.0924 81.9633 15.2301 81.5391 15.5054C81.1287 15.7808 80.8072 16.1525 80.5746 16.6207C80.3557 17.0888 80.2462 17.612 80.2462 18.1902C80.2462 18.7685 80.3557 19.2917 80.5746 19.7598C80.8072 20.2279 81.1287 20.5996 81.5391 20.875C81.9633 21.1504 82.4627 21.288 83.0373 21.288Z"
    fill="black" />
  <path
    d="M72.2687 23.4565C71.4204 23.4565 70.6748 23.2638 70.0317 22.8783C69.3887 22.479 68.8893 21.9558 68.5336 21.3087C68.1779 20.6478 68 19.925 68 19.1402V10.4674C68 9.65696 68.657 9 69.4674 9V9C70.2778 9 70.9347 9.65696 70.9347 10.4674V19.4913C70.9347 19.863 71.0647 20.1866 71.3247 20.462C71.5846 20.7236 71.8993 20.8543 72.2687 20.8543H74.7643C75.4829 20.8543 76.0654 21.4369 76.0654 22.1554V22.1554C76.0654 22.874 75.4829 23.4565 74.7643 23.4565H72.2687Z"
    fill="black" />
  <defs>
    <linearGradient id="paint0_linear_46_76" x1="53.0158" y1="37.1745" x2="8.33863" y2="-3.47217"
                    gradientUnits="userSpaceOnUse">
      <stop stop-color="#B060FF" />
      <stop offset="0.47" stop-color="#EE87CB" />
      <stop offset="1" stop-color="#FFF1BE" />
    </linearGradient>
    <linearGradient id="paint1_linear_46_76" x1="53.0158" y1="37.1745" x2="8.33863" y2="-3.47217"
                    gradientUnits="userSpaceOnUse">
      <stop stop-color="#B060FF" />
      <stop offset="0.47" stop-color="#EE87CB" />
      <stop offset="1" stop-color="#FFF1BE" />
    </linearGradient>
    <linearGradient id="paint2_linear_46_76" x1="53.0158" y1="37.1745" x2="8.33863" y2="-3.47217"
                    gradientUnits="userSpaceOnUse">
      <stop stop-color="#B060FF" />
      <stop offset="0.47" stop-color="#EE87CB" />
      <stop offset="1" stop-color="#FFF1BE" />
    </linearGradient>
    <linearGradient id="paint3_linear_46_76" x1="53.0158" y1="37.1745" x2="8.33863" y2="-3.47217"
                    gradientUnits="userSpaceOnUse">
      <stop stop-color="#B060FF" />
      <stop offset="0.47" stop-color="#EE87CB" />
      <stop offset="1" stop-color="#FFF1BE" />
    </linearGradient>
  </defs>
</svg>
