<svg width="60" height="36" viewBox="0 0 60 36" fill="none" xmlns="http://www.w3.org/2000/svg">
  <path
    d="M24.7049 21.6378C25.5747 22.1034 25.9163 23.1987 25.3003 23.9692C24.4062 25.0875 23.2673 25.9946 21.9631 26.6145C20.12 27.4907 18.0449 27.7463 16.0458 27.3435C14.0467 26.9407 12.23 25.901 10.8652 24.3786C9.50048 22.8561 8.66039 20.9321 8.46957 18.8918C8.27876 16.8516 8.74739 14.8039 9.80594 13.0525C10.8645 11.3011 12.4566 9.93936 14.346 9.1692C16.2354 8.39905 18.3216 8.26156 20.2949 8.77712C21.6905 9.14175 22.9771 9.8193 24.0626 10.7499C24.8119 11.3922 24.6802 12.5323 23.9124 13.1523C23.1393 13.7767 22.0147 13.6229 21.1899 13.0686C20.6441 12.7019 20.0379 12.4269 19.3944 12.2588C18.166 11.9378 16.8674 12.0234 15.6912 12.5028C14.515 12.9823 13.524 13.83 12.865 14.9202C12.2061 16.0104 11.9143 17.2851 12.0331 18.5552C12.1519 19.8252 12.6749 21.0229 13.5244 21.9707C14.374 22.9184 15.5049 23.5656 16.7493 23.8163C17.9938 24.0671 19.2855 23.9079 20.4329 23.3626C21.0353 23.0762 21.5811 22.6914 22.05 22.2274C22.7555 21.5294 23.83 21.1694 24.7049 21.6378Z"
    fill="url(#paint0_linear_46_126)" />
  <path
    d="M30.9436 27.545C31.7403 28.1285 31.9221 29.2532 31.2661 29.9913C28.8077 32.7575 25.5474 34.7046 21.9227 35.5422C17.7173 36.5141 13.3042 35.9272 9.49497 33.8896C5.68576 31.8519 2.73662 28.5005 1.18995 24.4517C-0.356718 20.4029 -0.396908 15.929 1.07677 11.8528C2.55045 7.77656 5.4389 4.37216 9.21088 2.26571C12.9829 0.159264 17.3847 -0.507592 21.6069 0.387792C25.8291 1.28318 29.5877 3.68059 32.1913 7.13911C34.4349 10.1192 35.6909 13.7145 35.8096 17.4205C35.8413 18.4096 34.9775 19.1575 33.9901 19.0905C33.0038 19.0236 32.2698 18.1678 32.2138 17.1807C32.0529 14.3421 31.0579 11.5999 29.335 9.31129C27.252 6.54447 24.2452 4.62654 20.8674 3.91023C17.4897 3.19393 13.9682 3.72741 10.9506 5.41257C7.933 7.09773 5.62224 9.82125 4.4433 13.0822C3.26436 16.3432 3.29651 19.9223 4.53385 23.1614C5.77118 26.4004 8.13049 29.0815 11.1779 30.7117C14.2252 32.3418 17.7557 32.8113 21.1201 32.0338C23.8975 31.3919 26.4075 29.9358 28.3425 27.8696C29.0221 27.1439 30.1415 26.9576 30.9436 27.545Z"
    fill="url(#paint1_linear_46_126)" />
  <path
    d="M34.7616 3.37882C34.3361 2.48448 34.7115 1.40504 35.6426 1.06753C37.2866 0.471637 39.0116 0.119683 40.7632 0.0256363C43.1117 -0.100466 45.462 0.239588 47.6798 1.02638C49.8976 1.81318 51.9395 3.0313 53.6888 4.61121C55.4382 6.19111 56.8609 8.10186 57.8756 10.2344C58.8902 12.3668 59.477 14.6793 59.6025 17.0398C59.728 19.4002 59.3896 21.7623 58.6068 23.9913C57.824 26.2204 56.612 28.2726 55.04 30.0308C53.8706 31.3387 52.5191 32.465 51.0301 33.3758C50.1806 33.8955 49.0974 33.5078 48.6695 32.6084C48.2439 31.7141 48.6295 30.6532 49.4616 30.116C50.5372 29.4217 51.5177 28.5843 52.3757 27.6246C53.6333 26.2181 54.6029 24.5763 55.2292 22.7931C55.8554 21.0099 56.1261 19.1201 56.0257 17.2318C55.9254 15.3435 55.4559 13.4935 54.6442 11.7875C53.8324 10.0815 52.6943 8.55289 51.2948 7.28897C49.8953 6.02504 48.2618 5.05054 46.4875 4.42111C44.7133 3.79167 42.8331 3.51963 40.9542 3.62051C39.6774 3.68907 38.4182 3.92895 37.2095 4.33171C36.2647 4.64656 35.1895 4.27814 34.7616 3.37882Z"
    fill="url(#paint2_linear_46_126)" />
  <path
    d="M34.3496 15.8001C33.4003 15.5167 32.3832 16.06 32.2845 17.0458C32.1231 18.6579 32.3725 20.2953 33.023 21.7992C33.9126 23.856 35.4955 25.5314 37.493 26.5308C39.4906 27.5303 41.7748 27.7896 43.9438 27.2632C46.1129 26.7368 48.0277 25.4584 49.3514 23.653C50.675 21.8475 51.3227 19.6307 51.1805 17.3926C51.0383 15.1545 50.1153 13.0386 48.5738 11.417C47.0324 9.79551 44.9713 8.77233 42.7533 8.52753C41.1309 8.34848 39.5007 8.59425 38.0162 9.22703C37.1068 9.61467 36.8902 10.7439 37.4378 11.5669C37.989 12.3953 39.1095 12.5858 40.0643 12.3056C40.8042 12.0886 41.5849 12.0176 42.3626 12.1034C43.7433 12.2558 45.0263 12.8927 45.9859 13.9021C46.9454 14.9115 47.52 16.2287 47.6086 17.6219C47.6971 19.0151 47.2939 20.3951 46.4699 21.519C45.6459 22.6429 44.4539 23.4387 43.1037 23.7663C41.7535 24.094 40.3315 23.9326 39.0881 23.3105C37.8446 22.6883 36.8593 21.6453 36.3055 20.365C35.9901 19.6358 35.8262 18.8562 35.8166 18.0729C35.8045 17.0861 35.2953 16.0824 34.3496 15.8001Z"
    fill="url(#paint3_linear_46_126)" />
  <defs>
    <linearGradient id="paint0_linear_46_126" x1="53.0158" y1="37.1745" x2="8.33863" y2="-3.47214"
                    gradientUnits="userSpaceOnUse">
      <stop stop-color="#B060FF" />
      <stop offset="0.47" stop-color="#EE87CB" />
      <stop offset="1" stop-color="#FFF1BE" />
    </linearGradient>
    <linearGradient id="paint1_linear_46_126" x1="53.0158" y1="37.1745" x2="8.33863" y2="-3.47214"
                    gradientUnits="userSpaceOnUse">
      <stop stop-color="#B060FF" />
      <stop offset="0.47" stop-color="#EE87CB" />
      <stop offset="1" stop-color="#FFF1BE" />
    </linearGradient>
    <linearGradient id="paint2_linear_46_126" x1="53.0158" y1="37.1745" x2="8.33863" y2="-3.47214"
                    gradientUnits="userSpaceOnUse">
      <stop stop-color="#B060FF" />
      <stop offset="0.47" stop-color="#EE87CB" />
      <stop offset="1" stop-color="#FFF1BE" />
    </linearGradient>
    <linearGradient id="paint3_linear_46_126" x1="53.0158" y1="37.1745" x2="8.33863" y2="-3.47214"
                    gradientUnits="userSpaceOnUse">
      <stop stop-color="#B060FF" />
      <stop offset="0.47" stop-color="#EE87CB" />
      <stop offset="1" stop-color="#FFF1BE" />
    </linearGradient>
  </defs>
</svg>
