<svg width="56" height="34" viewBox="0 0 56 34" fill="none" xmlns="http://www.w3.org/2000/svg">
  <path
    d="M27.8325 27.1317C27.8626 27.1598 27.8645 27.2069 27.8364 27.2371C25.4976 29.7543 22.3673 31.3866 18.9711 31.8586C15.5503 32.3339 12.0713 31.6026 9.12697 29.7893C6.18259 27.9759 3.95497 25.1927 2.82367 21.9139C1.69238 18.6351 1.7274 15.0635 2.92278 11.8077C4.11815 8.55196 6.39992 5.81342 9.37928 4.05873C12.3587 2.30405 15.8513 1.64179 19.2621 2.18479C22.6729 2.72779 25.7908 4.44246 28.0846 7.03664C30.3619 9.61221 31.687 12.8965 31.8384 16.3371C31.8403 16.3782 31.8082 16.413 31.767 16.4146C31.7258 16.4162 31.6911 16.3841 31.6893 16.3429C31.5392 12.937 30.2274 9.68589 27.973 7.13627C25.7021 4.56804 22.6154 2.87051 19.2387 2.33294C15.862 1.79537 12.4043 2.45101 9.45476 4.18814C6.50518 5.92528 4.24623 8.63644 3.06281 11.8597C1.87939 15.0829 1.84472 18.6187 2.9647 21.8648C4.08468 25.1108 6.29002 27.8662 9.20496 29.6614C12.1199 31.4566 15.5641 32.1806 18.9506 31.71C22.3124 31.2428 25.411 29.6272 27.7263 27.1358C27.7546 27.1054 27.8021 27.1035 27.8325 27.1317Z"
    stroke="url(#paint0_linear_35_26)" stroke-width="3.5" />
  <path
    d="M22.507 21.7073C22.5228 21.7206 22.5248 21.7441 22.5115 21.7598C21.5634 22.8797 20.3084 23.6951 18.9024 24.1042C17.4845 24.5167 15.9768 24.4974 14.5698 24.0487C13.1628 23.6001 11.9199 22.7423 10.998 21.5838C10.0762 20.4252 9.51695 19.018 9.39098 17.5401C9.265 16.0621 9.57797 14.5798 10.2903 13.2806C11.0027 11.9814 12.0824 10.9237 13.3929 10.2411C14.7035 9.5586 16.186 9.28192 17.653 9.44609C19.1077 9.60888 20.4824 10.1979 21.6062 11.1395C21.622 11.1527 21.624 11.1762 21.6108 11.192C21.5975 11.2079 21.5737 11.2099 21.5578 11.1966C20.4454 10.2647 19.0847 9.68177 17.6448 9.52063C16.1924 9.3581 14.7247 9.63201 13.4273 10.3077C12.1298 10.9834 11.0609 12.0306 10.3557 13.3168C9.65046 14.603 9.34062 16.0705 9.46534 17.5337C9.59005 18.9968 10.1437 20.39 11.0563 21.5369C11.9689 22.6839 13.1995 23.5331 14.5924 23.9773C15.9853 24.4214 17.4779 24.4405 18.8816 24.0321C20.2733 23.6273 21.5156 22.8202 22.4541 21.7118C22.4675 21.696 22.4912 21.6939 22.507 21.7073Z"
    stroke="url(#paint1_linear_35_26)" stroke-width="3.5" />
  <path
    d="M22.507 21.7073C22.5228 21.7206 22.5248 21.7441 22.5115 21.7598C21.5634 22.8797 20.3084 23.6951 18.9024 24.1042C17.4845 24.5167 15.9768 24.4974 14.5698 24.0487C13.1628 23.6001 11.9199 22.7423 10.998 21.5838C10.0762 20.4252 9.51695 19.018 9.39098 17.5401C9.265 16.0621 9.57797 14.5798 10.2903 13.2806C11.0027 11.9814 12.0824 10.9237 13.3929 10.2411C14.7035 9.5586 16.186 9.28192 17.653 9.44609C19.1077 9.60888 20.4824 10.1979 21.6062 11.1395C21.622 11.1527 21.624 11.1762 21.6108 11.192C21.5975 11.2079 21.5737 11.2099 21.5578 11.1966C20.4454 10.2647 19.0847 9.68177 17.6448 9.52063C16.1924 9.3581 14.7247 9.63201 13.4273 10.3077C12.1298 10.9834 11.0609 12.0306 10.3557 13.3168C9.65046 14.603 9.34062 16.0705 9.46534 17.5337C9.59005 18.9968 10.1437 20.39 11.0563 21.5369C11.9689 22.6839 13.1995 23.5331 14.5924 23.9773C15.9853 24.4214 17.4779 24.4405 18.8816 24.0321C20.2733 23.6273 21.5156 22.8202 22.4541 21.7118C22.4675 21.696 22.4912 21.6939 22.507 21.7073Z"
    stroke="url(#paint2_linear_35_26)" stroke-width="3.5" />
  <path
    d="M31.8246 3.97311C31.8046 3.93707 31.8174 3.89156 31.8535 3.87154C33.5469 2.93103 35.4064 2.33025 37.3285 2.10288C39.2752 1.8726 41.248 2.0299 43.1343 2.56579C45.0205 3.10169 46.7833 4.00569 48.3219 5.22618C49.8604 6.44667 51.1448 7.95975 52.1014 9.67902C53.0581 11.3983 53.6685 13.2901 53.8977 15.2464C54.1268 17.2027 53.9703 19.1853 53.437 21.0808C52.9037 22.9763 52.0042 24.7477 50.7896 26.2939C49.5907 27.8203 48.1079 29.0976 46.4241 30.0551C46.388 30.0756 46.3422 30.0626 46.322 30.0263C46.302 29.9903 46.3148 29.9448 46.3507 29.9244C48.0176 28.9766 49.4855 27.712 50.6725 26.2009C51.8749 24.6702 52.7654 22.9165 53.2934 21.04C53.8213 19.1634 53.9763 17.2007 53.7494 15.264C53.5225 13.3272 52.9183 11.4543 51.9712 9.75223C51.024 8.05015 49.7526 6.5522 48.2294 5.34392C46.7062 4.13563 44.9611 3.24067 43.0937 2.71013C41.2263 2.1796 39.2732 2.02387 37.3459 2.25185C35.4436 2.47689 33.6031 3.07144 31.9269 4.00215C31.8906 4.0223 31.8448 4.00937 31.8246 3.97311Z"
    stroke="url(#paint3_linear_35_26)" stroke-width="3.5" />
  <path
    d="M35.5176 10.4429C35.4973 10.407 35.5099 10.3613 35.5459 10.3413C36.9671 9.54914 38.6074 9.24451 40.2176 9.47489C41.8525 9.70878 43.364 10.4809 44.5154 11.6705C45.6669 12.86 46.3932 14.3997 46.5807 16.0484C46.7682 17.6971 46.4063 19.3618 45.5516 20.7817C44.697 22.2016 43.3978 23.2966 41.8576 23.8952C40.3174 24.4937 38.6232 24.562 37.0402 24.0894C35.4573 23.6168 34.075 22.6299 33.1099 21.2834C32.1592 19.9571 31.6662 18.3556 31.7046 16.7228C31.7055 16.6816 31.7401 16.6493 31.7813 16.6507C31.8225 16.6521 31.8547 16.6866 31.8538 16.7278C31.8164 18.3274 32.2996 19.8963 33.231 21.1957C34.1768 22.5153 35.5314 23.4825 37.0827 23.9456C38.634 24.4088 40.2944 24.3418 41.8038 23.7552C43.3132 23.1687 44.5863 22.0956 45.4239 20.7041C46.2615 19.3126 46.6162 17.6812 46.4324 16.0654C46.2487 14.4497 45.5369 12.9408 44.4084 11.7751C43.28 10.6093 41.7988 9.8526 40.1966 9.62339C38.6193 9.39772 37.0125 9.6959 35.6201 10.4714C35.5839 10.4916 35.538 10.479 35.5176 10.4429Z"
    stroke="url(#paint4_linear_35_26)" stroke-width="3.5" />
  <defs>
    <linearGradient id="paint0_linear_35_26" x1="48.2337" y1="32.9788" x2="10.8813" y2="-2.5838"
                    gradientUnits="userSpaceOnUse">
      <stop stop-color="#B060FF" />
      <stop offset="0.47" stop-color="#EE87CB" />
      <stop offset="1" stop-color="#FFF1BE" />
    </linearGradient>
    <linearGradient id="paint1_linear_35_26" x1="48.2337" y1="32.9788" x2="10.8813" y2="-2.5838"
                    gradientUnits="userSpaceOnUse">
      <stop stop-color="#B060FF" />
      <stop offset="0.47" stop-color="#EE87CB" />
      <stop offset="1" stop-color="#FFF1BE" />
    </linearGradient>
    <linearGradient id="paint2_linear_35_26" x1="48.2337" y1="32.9788" x2="10.8813" y2="-2.5838"
                    gradientUnits="userSpaceOnUse">
      <stop stop-color="#B060FF" />
      <stop offset="0.47" stop-color="#EE87CB" />
      <stop offset="1" stop-color="#FFF1BE" />
    </linearGradient>
    <linearGradient id="paint3_linear_35_26" x1="48.2337" y1="32.9788" x2="10.8813" y2="-2.5838"
                    gradientUnits="userSpaceOnUse">
      <stop stop-color="#B060FF" />
      <stop offset="0.47" stop-color="#EE87CB" />
      <stop offset="1" stop-color="#FFF1BE" />
    </linearGradient>
    <linearGradient id="paint4_linear_35_26" x1="48.2337" y1="32.9788" x2="10.8813" y2="-2.5838"
                    gradientUnits="userSpaceOnUse">
      <stop stop-color="#B060FF" />
      <stop offset="0.47" stop-color="#EE87CB" />
      <stop offset="1" stop-color="#FFF1BE" />
    </linearGradient>
  </defs>
</svg>
