<svg width="64" height="64" viewBox="0 0 64 64" fill="none" xmlns="http://www.w3.org/2000/svg">
<path d="M27.5874 35.0315C28.3122 35.4195 28.5969 36.3322 28.0835 36.9743C27.3384 37.9062 26.3894 38.6622 25.3026 39.1788C23.7666 39.9089 22.0374 40.1219 20.3715 39.7863C18.7055 39.4506 17.1916 38.5842 16.0543 37.3155C14.9171 36.0467 14.217 34.4434 14.058 32.7432C13.899 31.043 14.2895 29.3366 15.1716 27.8771C16.0537 26.4176 17.3805 25.2828 18.955 24.641C20.5295 23.9992 22.2679 23.8846 23.9124 24.3143C25.0754 24.6181 26.1476 25.1828 27.0521 25.9582C27.6765 26.4935 27.5668 27.4436 26.927 27.9603C26.2827 28.4806 25.3456 28.3524 24.6582 27.8905C24.2034 27.5849 23.6982 27.3557 23.1619 27.2156C22.1383 26.9482 21.0561 27.0195 20.076 27.419C19.0958 27.8185 18.2699 28.525 17.7208 29.4335C17.1717 30.342 16.9286 31.4043 17.0276 32.4626C17.1266 33.521 17.5624 34.5191 18.2703 35.3089C18.9783 36.0986 19.9207 36.638 20.9577 36.8469C21.9948 37.0559 23.0712 36.9233 24.0274 36.4688C24.5294 36.2302 24.9842 35.9095 25.375 35.5228C25.9629 34.9412 26.8583 34.6412 27.5874 35.0315Z" fill="url(#paint0_linear_102_153)"/>
<path d="M32.7863 39.9542C33.4502 40.4404 33.6017 41.3776 33.0551 41.9927C31.0064 44.2979 28.2895 45.9205 25.2689 46.6185C21.7644 47.4284 18.0868 46.9393 14.9125 45.2413C11.7381 43.5433 9.28051 40.7504 7.99162 37.3764C6.70274 34.0024 6.66924 30.2742 7.89731 26.8773C9.12537 23.4805 11.5324 20.6435 14.6757 18.8881C17.819 17.1327 21.4873 16.577 25.0057 17.3232C28.5242 18.0693 31.6563 20.0672 33.8261 22.9493C35.6957 25.4327 36.7424 28.4287 36.8413 31.5171C36.8677 32.3413 36.1479 32.9646 35.3251 32.9088C34.5031 32.853 33.8914 32.1398 33.8448 31.3173C33.7107 28.9517 32.8815 26.6666 31.4457 24.7594C29.71 22.4537 27.2043 20.8555 24.3895 20.2585C21.5747 19.6616 18.6401 20.1062 16.1255 21.5105C13.6108 22.9148 11.6852 25.1844 10.7027 27.9019C9.72029 30.6193 9.74709 33.6019 10.7782 36.3011C11.8093 39.0003 13.7754 41.2346 16.3149 42.593C18.8543 43.9515 21.7964 44.3427 24.6 43.6948C26.9146 43.1599 29.0062 41.9465 30.6187 40.2246C31.185 39.6199 32.1179 39.4647 32.7863 39.9542Z" fill="url(#paint1_linear_102_153)"/>
<path d="M35.968 19.8157C35.6134 19.0704 35.9262 18.1709 36.7021 17.8896C38.0721 17.3931 39.5096 17.0998 40.9692 17.0214C42.9264 16.9163 44.8849 17.1997 46.7331 17.8553C48.5812 18.511 50.2828 19.5261 51.7406 20.8427C53.1984 22.1593 54.384 23.7516 55.2295 25.5286C56.0751 27.3057 56.5641 29.2328 56.6687 31.1998C56.7732 33.1668 56.4913 35.1353 55.8389 36.9928C55.1865 38.8503 54.1766 40.5605 52.8666 42.0256C51.8921 43.1156 50.7659 44.0541 49.525 44.8132C48.8171 45.2463 47.9144 44.9231 47.5578 44.1737C47.2032 43.4284 47.5245 42.5443 48.2179 42.0967C49.1142 41.5181 49.9314 40.8202 50.6464 40.0205C51.6943 38.8484 52.5023 37.4802 53.0242 35.9942C53.5461 34.5082 53.7717 32.9335 53.688 31.3598C53.6044 29.7862 53.2132 28.2446 52.5367 26.8229C51.8603 25.4013 50.9118 24.1274 49.7456 23.0742C48.5793 22.0209 47.2181 21.2088 45.7395 20.6843C44.261 20.1597 42.6942 19.933 41.1285 20.0171C40.0644 20.0742 39.0151 20.2741 38.0079 20.6098C37.2205 20.8722 36.3246 20.5651 35.968 19.8157Z" fill="url(#paint2_linear_102_153)"/>
<path d="M35.6246 30.1668C34.8336 29.9306 33.986 30.3833 33.9037 31.2048C33.7692 32.5482 33.977 33.9127 34.5191 35.166C35.2605 36.8799 36.5795 38.2762 38.2441 39.109C39.9087 39.9419 41.8123 40.158 43.6198 39.7193C45.4273 39.2806 47.023 38.2153 48.1261 36.7108C49.2291 35.2063 49.7689 33.3589 49.6504 31.4939C49.5318 29.6288 48.7626 27.8655 47.4781 26.5142C46.1936 25.1629 44.476 24.3103 42.6277 24.1063C41.2757 23.9571 39.9172 24.1619 38.6801 24.6892C37.9223 25.0122 37.7417 25.9532 38.1981 26.6391C38.6575 27.3295 39.5912 27.4882 40.3869 27.2547C41.0035 27.0738 41.654 27.0146 42.3021 27.0862C43.4527 27.2132 44.5219 27.7439 45.3215 28.5851C46.1211 29.4263 46.5999 30.5239 46.6737 31.6849C46.7475 32.8459 46.4115 33.9959 45.7248 34.9325C45.0382 35.869 44.0449 36.5322 42.9197 36.8053C41.7945 37.0783 40.6096 36.9438 39.5733 36.4254C38.5371 35.9069 37.716 35.0378 37.2545 33.9709C36.9917 33.3632 36.8551 32.7135 36.8471 32.0607C36.837 31.2384 36.4127 30.402 35.6246 30.1668Z" fill="url(#paint3_linear_102_153)"/>
<defs>
<linearGradient id="paint0_linear_102_153" x1="51.1798" y1="47.9788" x2="13.9488" y2="14.1066" gradientUnits="userSpaceOnUse">
<stop stop-color="#B060FF"/>
<stop offset="0.47" stop-color="#EE87CB"/>
<stop offset="1" stop-color="#FFF1BE"/>
</linearGradient>
<linearGradient id="paint1_linear_102_153" x1="51.1798" y1="47.9788" x2="13.9488" y2="14.1066" gradientUnits="userSpaceOnUse">
<stop stop-color="#B060FF"/>
<stop offset="0.47" stop-color="#EE87CB"/>
<stop offset="1" stop-color="#FFF1BE"/>
</linearGradient>
<linearGradient id="paint2_linear_102_153" x1="51.1798" y1="47.9788" x2="13.9488" y2="14.1066" gradientUnits="userSpaceOnUse">
<stop stop-color="#B060FF"/>
<stop offset="0.47" stop-color="#EE87CB"/>
<stop offset="1" stop-color="#FFF1BE"/>
</linearGradient>
<linearGradient id="paint3_linear_102_153" x1="51.1798" y1="47.9788" x2="13.9488" y2="14.1066" gradientUnits="userSpaceOnUse">
<stop stop-color="#B060FF"/>
<stop offset="0.47" stop-color="#EE87CB"/>
<stop offset="1" stop-color="#FFF1BE"/>
</linearGradient>
</defs>
</svg>
