<svg width="64" height="64" viewBox="0 0 64 64" fill="none" xmlns="http://www.w3.org/2000/svg">
<g clip-path="url(#clip0_101_148)">
<mask id="mask0_101_148" style="mask-type:luminance" maskUnits="userSpaceOnUse" x="17" y="17" width="30" height="30">
<path d="M47 17H17V47H47V17Z" fill="white"/>
</mask>
<g mask="url(#mask0_101_148)">
<path d="M23.4913 36.1059C23.4913 37.85 22.0831 39.2596 20.3409 39.2596C18.5986 39.2596 17.1904 37.85 17.1904 36.1059C17.1904 34.3618 18.5986 32.9521 20.3409 32.9521H23.4913V36.1059ZM25.0665 36.1059C25.0665 34.3618 26.4746 32.9521 28.2169 32.9521C29.9592 32.9521 31.3673 34.3618 31.3673 36.1059V43.9901C31.3673 45.7342 29.9592 47.1438 28.2169 47.1438C26.4746 47.1438 25.0665 45.7342 25.0665 43.9901V36.1059Z" fill="#E01E5A"/>
<path d="M28.2151 23.4539C26.4729 23.4539 25.0647 22.0443 25.0647 20.3002C25.0647 18.5561 26.4729 17.1465 28.2151 17.1465C29.9574 17.1465 31.3656 18.5561 31.3656 20.3002V23.4539H28.2151ZM28.2151 25.0546C29.9574 25.0546 31.3656 26.4642 31.3656 28.2084C31.3656 29.9524 29.9574 31.362 28.2151 31.362H20.3152C18.5729 31.362 17.1648 29.9524 17.1648 28.2084C17.1648 26.4642 18.5729 25.0546 20.3152 25.0546H28.2151Z" fill="#36C5F0"/>
<path d="M40.8391 28.2084C40.8391 26.4642 42.2473 25.0546 43.9897 25.0546C45.7319 25.0546 47.1401 26.4642 47.1401 28.2084C47.1401 29.9524 45.7319 31.362 43.9897 31.362H40.8391V28.2084ZM39.2639 28.2084C39.2639 29.9524 37.8558 31.362 36.1136 31.362C34.3713 31.362 32.9631 29.9524 32.9631 28.2084V20.3002C32.9631 18.5561 34.3713 17.1465 36.1136 17.1465C37.8558 17.1465 39.2639 18.5561 39.2639 20.3002V28.2084Z" fill="#2EB67D"/>
<path d="M36.1136 40.8365C37.8558 40.8365 39.2639 42.2459 39.2639 43.9901C39.2639 45.7342 37.8558 47.1438 36.1136 47.1438C34.3713 47.1438 32.9631 45.7342 32.9631 43.9901V40.8365H36.1136ZM36.1136 39.2596C34.3713 39.2596 32.9631 37.85 32.9631 36.1059C32.9631 34.3618 34.3713 32.9521 36.1136 32.9521H44.0135C45.7558 32.9521 47.1639 34.3618 47.1639 36.1059C47.1639 37.85 45.7558 39.2596 44.0135 39.2596H36.1136Z" fill="#ECB22E"/>
</g>
</g>
<defs>
<clipPath id="clip0_101_148">
<rect width="30" height="30" fill="white" transform="translate(17 17)"/>
</clipPath>
</defs>
</svg>
